# xmcd
#
# Track frame offsets:
#	150
#	16135
#	32710
#	49285
#	64585
#	80635
#	98035
#	109210
#	121957
#	136285
#	157060
#	170632
#	189910
#	203482
#
# Disc length: 2847 seconds
#
# Revision: 1
# Processed by: cddbd v1.5.2PL0 Copyright (c) Steve Scherf et al.
# Submitted via: audiograbber 1.83.01
#
DISCID=b80b1d0e
DTITLE=Star TraxKaraoke - Country Line Express
DYEAR=1900
DGENRE=
TTITLE0=Rednex - Cotton Eye Joe
TTITLE1=Billy Rae Cyrus - Achy Breaky Heart
TTITLE2=Steps - 5-6-7-8
TTITLE3=Bellamy Bros - If I Said You Had A Beautiful Body
TTITLE4=Don Williams	 - I Recall A Gypsy Woman
TTITLE5=Don McLean - Crying
TTITLE6=Ricky Nelson - Hello Mary Lou, Goodbye Heart
TTITLE7=Woolpackers - Hillbilly Rock, Hillbilly Roll
TTITLE8=Glen Campbell - Rhinestone Cowboy
TTITLE9=Kenny Rogers  - Coward Of The County
TTITLE10=Tammy Wynette - Stand By Your Man
TTITLE11=Kenny Rogers - Lucille
TTITLE12=Roger Miller - King Of The Road
TTITLE13=Bellamy Bros - Let Your Love Flow
EXTD=
EXTT0=
EXTT1=
EXTT2=
EXTT3=
EXTT4=
EXTT5=
EXTT6=
EXTT7=
EXTT8=
EXTT9=
EXTT10=
EXTT11=
EXTT12=
EXTT13=
PLAYORDER=
